<?xml version="1.0" standalone="no"?>
<!DOCTYPE svg PUBLIC "-//W3C//DTD SVG 20010904//EN"
 "http://www.w3.org/TR/2001/REC-SVG-20010904/DTD/svg10.dtd">
<svg version="1.0" xmlns="http://www.w3.org/2000/svg"
 width="316.000000pt" height="106.000000pt" viewBox="0 0 316.000000 106.000000"
 preserveAspectRatio="xMidYMid meet">
<metadata>
Created by potrace 1.15, written by Peter Selinger 2001-2017
</metadata>
<g transform="translate(0.000000,106.000000) scale(0.100000,-0.100000)"
fill="#000000" stroke="none">
<path d="M250 970 l0 -70 50 0 c28 0 50 -3 50 -7 0 -4 -57 -171 -127 -370
l-128 -363 -42 0 -43 0 0 -65 0 -65 185 0 185 0 0 65 0 65 -40 0 c-45 0 -46 3
-21 75 l18 50 190 3 191 2 18 -52 c9 -29 19 -59 22 -66 3 -8 -7 -12 -32 -12
l-36 0 0 -65 0 -65 195 0 195 0 0 64 0 65 -41 3 -41 3 -62 175 c-35 96 -104
293 -156 438 l-93 262 -218 0 -219 0 0 -70z m346 -338 c31 -89 55 -165 52
-167 -3 -3 -59 -4 -125 -3 l-120 3 60 173 c34 95 64 169 68 165 4 -5 33 -81
65 -171z"/>
<path d="M1090 955 l0 -85 -75 0 -75 0 0 -85 0 -85 75 0 75 0 0 -228 c0 -260
9 -308 66 -371 64 -71 186 -104 299 -81 67 13 143 51 176 86 l22 24 31 -24
c181 -137 428 -122 589 36 149 148 175 392 58 561 -86 125 -231 202 -368 195
l-58 -3 -33 -65 c-99 -199 -29 -450 160 -571 l50 -32 -28 -16 c-18 -9 -55 -16
-94 -16 -54 0 -73 5 -113 28 -59 35 -102 93 -123 165 -19 64 -13 124 21 197
12 28 28 83 34 124 6 41 20 94 31 119 11 25 18 47 15 50 -2 3 -33 -9 -68 -26
-81 -40 -158 -121 -200 -209 -27 -59 -32 -81 -35 -168 -3 -83 0 -111 18 -165
l22 -65 -26 -22 c-33 -28 -98 -46 -136 -38 -40 9 -77 46 -89 91 -6 22 -11 125
-11 232 l0 192 115 0 115 0 0 85 0 85 -115 0 -115 0 0 85 0 85 -105 0 -105 0
0 -85z m1037 -310 c67 -68 98 -164 77 -242 l-6 -22 -37 18 c-91 47 -153 170
-136 271 6 33 9 37 28 32 12 -3 45 -29 74 -57z"/>
<path d="M2660 1026 c-160 -45 -240 -139 -240 -282 0 -56 5 -81 26 -123 43
-85 94 -115 347 -205 132 -48 174 -113 107 -170 -71 -59 -215 -60 -379 -2 -24
9 -49 16 -56 16 -10 0 -81 -105 -103 -151 -5 -10 111 -58 179 -73 269 -63 508
4 585 162 23 46 30 168 14 217 -17 51 -74 111 -134 142 -28 14 -104 46 -170
69 -119 44 -176 77 -197 115 -17 33 7 76 55 101 43 22 155 36 200 24 25 -6 26
-9 26 -76 l0 -70 83 0 84 0 6 107 c4 58 7 123 7 144 l0 37 -87 16 c-103 19
-288 20 -353 2z"/>
</g>
</svg>
